<?xml version="1.0" standalone="no"?><!-- Generator: Gravit.io --><svg xmlns="http://www.w3.org/2000/svg" xmlns:xlink="http://www.w3.org/1999/xlink" style="isolation:isolate" viewBox="0 0 150 150" width="150" height="150"><defs><clipPath id="_clipPath_TGlgGEtv0qUHK4cyHaqHDdgNW2Fq8qFK"><rect width="150" height="150"/></clipPath></defs><g clip-path="url(#_clipPath_TGlgGEtv0qUHK4cyHaqHDdgNW2Fq8qFK)"><path d=" M 125.75 116.742 L 125.75 116.742 L 118.939 116.742 C 114.086 116.742 110.152 112.81 110.152 107.957 L 110.152 85.985 L 92.576 85.985 L 92.576 125.75 C 97.59 126.768 101.364 131.201 101.364 136.515 C 101.364 142.582 96.446 147.5 90.379 147.5 C 84.312 147.5 79.394 142.582 79.394 136.515 C 79.394 131.201 83.168 126.768 88.182 125.75 L 88.182 85.985 L 61.818 85.985 L 61.818 125.75 C 66.832 126.768 70.606 131.201 70.606 136.515 C 70.606 142.582 65.688 147.5 59.621 147.5 C 53.554 147.5 48.636 142.582 48.636 136.515 C 48.636 131.201 52.41 126.768 57.424 125.75 L 57.424 85.985 L 39.848 85.985 L 39.848 107.957 C 39.848 112.81 35.914 116.742 31.061 116.742 L 24.25 116.742 C 23.232 121.756 18.799 125.53 13.485 125.53 C 7.418 125.53 2.5 120.612 2.5 114.545 C 2.5 108.479 7.418 103.561 13.485 103.561 C 18.799 103.561 23.232 107.334 24.25 112.348 L 31.061 112.348 C 33.488 112.348 35.455 110.383 35.455 107.957 L 35.455 85.985 L 31.061 85.985 C 15.287 85.985 2.5 73.198 2.5 57.424 C 2.5 42.635 13.765 30.405 28.267 28.999 C 32.981 13.431 47.407 2.5 64.015 2.5 C 79.078 2.5 92.445 11.5 98.294 24.996 C 100.014 24.647 101.776 24.47 103.561 24.47 C 116.567 24.47 127.51 33.934 129.66 46.533 C 139.673 47.504 147.5 55.944 147.5 66.212 C 147.5 77.132 138.647 85.985 127.727 85.985 L 114.545 85.985 L 114.545 107.957 C 114.545 110.383 116.512 112.348 118.939 112.348 L 125.75 112.348 C 126.768 107.334 131.201 103.561 136.515 103.561 C 142.582 103.561 147.5 108.479 147.5 114.545 C 147.5 120.612 142.582 125.53 136.515 125.53 C 131.201 125.53 126.768 121.756 125.75 116.742 Z  M 136.515 121.136 C 140.155 121.136 143.106 118.186 143.106 114.545 C 143.106 110.905 140.155 107.955 136.515 107.955 C 132.875 107.955 129.924 110.905 129.924 114.545 C 129.924 118.186 132.875 121.136 136.515 121.136 Z  M 13.485 121.136 C 17.125 121.136 20.076 118.186 20.076 114.545 C 20.076 110.905 17.125 107.955 13.485 107.955 C 9.845 107.955 6.894 110.905 6.894 114.545 C 6.894 118.186 9.845 121.136 13.485 121.136 Z  M 59.621 143.106 C 63.261 143.106 66.212 140.155 66.212 136.515 C 66.212 132.875 63.261 129.924 59.621 129.924 C 55.981 129.924 53.03 132.875 53.03 136.515 C 53.03 140.155 55.981 143.106 59.621 143.106 Z  M 90.379 143.106 C 94.019 143.106 96.97 140.155 96.97 136.515 C 96.97 132.875 94.019 129.924 90.379 129.924 C 86.739 129.924 83.788 132.875 83.788 136.515 C 83.788 140.155 86.739 143.106 90.379 143.106 Z  M 103.561 28.864 C 101.509 28.864 99.497 29.144 97.564 29.691 C 96.462 30.003 95.306 29.417 94.907 28.345 C 90.141 15.553 77.894 6.894 64.015 6.894 C 48.883 6.894 35.802 17.18 32.093 31.629 C 31.852 32.568 31.024 33.238 30.055 33.278 C 17.138 33.806 6.894 44.452 6.894 57.424 C 6.894 70.771 17.714 81.591 31.061 81.591 L 127.727 81.591 C 136.221 81.591 143.106 74.706 143.106 66.212 C 143.106 57.719 136.221 50.833 127.727 50.833 C 126.597 50.833 125.651 49.976 125.541 48.851 C 124.433 37.561 114.939 28.864 103.561 28.864 Z " fill-rule="evenodd" fill="rgb(102,102,102)"/></g></svg>