<?xml version="1.0" standalone="no"?><!-- Generator: Gravit.io --><svg xmlns="http://www.w3.org/2000/svg" xmlns:xlink="http://www.w3.org/1999/xlink" style="isolation:isolate" viewBox="0 0 150 150" width="150" height="150"><defs><clipPath id="_clipPath_rRUdnrbG1HLliDwgQnPtqTspLjX5o5sd"><rect width="150" height="150"/></clipPath></defs><g clip-path="url(#_clipPath_rRUdnrbG1HLliDwgQnPtqTspLjX5o5sd)"><g><path d=" M 113.899 11.535 C 113.421 11.297 112.706 11.297 112.229 11.774 C 110.082 14.875 102.449 24.655 98.394 30.141 C 90.761 40.16 83.366 50.178 75.733 60.197 C 75.256 60.912 74.302 61.628 73.586 61.628 C 63.567 62.343 56.65 71.408 58.797 81.188 C 60.466 89.537 69.054 95.5 77.88 93.353 C 87.182 91.206 92.192 81.903 89.568 73.078 C 89.329 72.123 89.329 70.931 89.806 69.977 C 95.531 56.619 101.495 43.022 107.22 29.664 C 109.366 24.893 113.183 16.067 114.376 13.205 C 114.614 12.489 114.376 11.774 113.899 11.535 L 113.899 11.535 Z  M 75.017 85.959 C 70.723 86.436 66.907 83.335 66.43 79.041 C 65.953 74.747 69.054 70.931 73.347 70.454 C 77.641 69.977 81.458 73.078 81.935 77.371 C 82.412 81.665 79.311 85.481 75.017 85.959 Z " fill="rgb(102,102,102)"/><path d=" M 147.055 68.545 C 148.725 83.573 145.624 97.885 138.945 110.051 L 124.156 103.61 L 125.587 100.509 C 131.073 88.582 132.743 76.656 130.119 64.49 C 127.734 52.802 122.009 42.545 113.183 33.958 L 113.899 32.526 C 115.807 27.994 117.715 23.701 119.623 19.168 C 134.413 30.857 144.908 48.27 147.055 68.545 Z " fill="rgb(102,102,102)"/><path d=" M 104.834 9.627 L 95.293 22.031 C 69.531 12.966 47.347 17.499 29.457 35.627 C 9.658 55.903 5.842 80.234 18.007 108.142 L 12.282 111.243 C -0.837 90.968 -2.746 56.619 18.961 30.141 C 42.099 2.232 79.311 -1.584 104.119 9.388 L 104.834 9.627 Z " fill="rgb(102,102,102)"/><path d=" M 111.767 123.547 C 111.559 118.943 115.127 115.037 119.73 114.83 C 124.334 114.622 128.24 118.19 128.447 122.793 C 128.655 127.397 125.087 131.303 120.484 131.51 C 115.88 131.718 111.974 128.15 111.767 123.547 Z " fill="rgb(102,102,102)"/><path d=" M 90.293 138.338 C 90.085 133.735 93.654 129.829 98.257 129.621 C 102.86 129.413 106.766 132.981 106.974 137.585 C 107.182 142.188 103.614 146.094 99.01 146.302 C 94.407 146.509 90.501 142.941 90.293 138.338 Z " fill="rgb(102,102,102)"/></g></g></svg>