<?xml version="1.0" standalone="no"?><!-- Generator: Gravit.io --><svg xmlns="http://www.w3.org/2000/svg" xmlns:xlink="http://www.w3.org/1999/xlink" style="isolation:isolate" viewBox="0 0 150 150" width="150" height="150"><defs><clipPath id="_clipPath_4BxYna4RAEzZubHCpKk1oPEQSNIIDwRL"><rect width="150" height="150"/></clipPath></defs><g clip-path="url(#_clipPath_4BxYna4RAEzZubHCpKk1oPEQSNIIDwRL)"><g><path d=" M 116.083 127.166 L 106.977 118.06 C 111.31 110.153 113.667 101.62 113.667 92.879 L 113.667 91.917 L 118.5 91.917 L 118.5 87.083 L 113.667 87.083 L 113.667 65.333 C 113.667 63.999 112.586 62.917 111.25 62.917 L 94.333 62.917 L 94.333 48.417 C 94.333 47.083 93.253 46 91.917 46 L 84.667 46 L 84.667 38.75 C 84.667 18.762 68.405 2.5 48.417 2.5 C 28.428 2.5 12.167 18.762 12.167 38.75 L 12.167 46 L 4.917 46 C 3.58 46 2.5 47.083 2.5 48.417 L 2.5 65.333 L 2.5 77.417 L 2.5 89.5 L 2.5 101.583 L 2.5 113.667 L 2.5 120.917 C 2.5 127.579 7.921 133 14.583 133 L 54.374 133 C 59.804 138.389 66.344 143.203 73.864 147.215 C 74.219 147.406 74.609 147.5 75 147.5 C 75.392 147.5 75.781 147.406 76.138 147.215 C 88.335 140.709 97.951 132.099 104.408 122.323 L 112.666 130.583 L 104 130.583 L 104 135.417 L 118.5 135.417 C 119.836 135.417 120.917 134.334 120.917 133 L 120.917 118.5 L 116.083 118.5 L 116.083 127.166 Z  M 108.833 92.879 C 108.833 100.334 106.939 107.647 103.415 114.496 L 99.205 110.286 C 101.806 104.556 103.427 98.355 103.872 91.914 L 108.833 91.914 L 108.833 92.879 Z  M 99.167 87.083 L 75 87.083 C 74.024 87.083 73.139 87.673 72.767 88.574 C 72.392 89.478 72.6 90.517 73.291 91.209 L 93.338 111.255 C 89.152 119.024 82.883 125.646 75 130.228 C 60.058 121.545 50.833 105.571 50.833 88.222 L 50.833 77.417 L 99.167 77.417 L 99.167 87.083 Z  M 80.834 91.917 L 99.014 91.917 C 98.625 97.033 97.441 101.989 95.544 106.625 L 80.834 91.917 Z  M 17 38.75 C 17 21.427 31.094 7.333 48.417 7.333 C 65.739 7.333 79.833 21.427 79.833 38.75 L 79.833 46 L 72.583 46 L 72.583 38.75 C 72.583 25.425 61.742 14.583 48.417 14.583 C 35.091 14.583 24.25 25.425 24.25 38.75 L 24.25 46 L 17 46 L 17 38.75 Z  M 67.75 46 L 29.083 46 L 29.083 38.75 C 29.083 28.09 37.757 19.417 48.417 19.417 C 59.077 19.417 67.75 28.09 67.75 38.75 L 67.75 46 Z  M 7.333 91.917 L 21.833 91.917 L 21.833 99.167 L 7.333 99.167 L 7.333 91.917 Z  M 21.833 87.083 L 7.333 87.083 L 7.333 79.833 L 21.833 79.833 L 21.833 87.083 Z  M 7.333 104 L 21.833 104 L 21.833 111.25 L 7.333 111.25 L 7.333 104 Z  M 21.833 75 L 7.333 75 L 7.333 67.75 L 21.833 67.75 L 21.833 75 Z  M 14.583 128.167 C 10.586 128.167 7.333 124.914 7.333 120.917 L 7.333 116.083 L 24.25 116.083 C 25.586 116.083 26.667 115.001 26.667 113.667 L 26.667 101.583 L 26.667 89.5 L 26.667 77.417 L 26.667 65.333 C 26.667 63.999 25.586 62.917 24.25 62.917 L 7.333 62.917 L 7.333 50.833 L 89.5 50.833 L 89.5 62.917 L 38.75 62.917 C 37.414 62.917 36.333 63.999 36.333 65.333 L 36.333 92.879 C 36.333 105.498 41.203 117.695 49.954 128.167 L 14.583 128.167 Z  M 75 142.333 C 53.789 130.617 41.167 112.209 41.167 92.879 L 41.167 67.75 L 108.833 67.75 L 108.833 87.083 L 104 87.083 L 104 75 C 104 73.666 102.92 72.583 101.583 72.583 L 48.417 72.583 C 47.08 72.583 46 73.666 46 75 L 46 88.219 C 46 107.782 56.67 125.755 73.842 135.122 C 74.203 135.318 74.601 135.417 75 135.417 C 75.399 135.417 75.798 135.318 76.158 135.122 C 84.981 130.31 92.071 123.215 96.895 114.812 L 100.912 118.829 C 95.095 127.973 86.279 136.105 75 142.333 Z " fill="rgb(102,102,102)"/><rect x="123.333" y="87.083" width="4.833" height="4.833" transform="matrix(1,0,0,1,0,0)" fill="rgb(102,102,102)"/><rect x="133" y="87.083" width="4.833" height="4.833" transform="matrix(1,0,0,1,0,0)" fill="rgb(102,102,102)"/><rect x="142.667" y="87.083" width="4.833" height="4.833" transform="matrix(1,0,0,1,0,0)" fill="rgb(102,102,102)"/><rect x="133" y="21.833" width="4.833" height="4.833" transform="matrix(1,0,0,1,0,0)" fill="rgb(102,102,102)"/><rect x="142.667" y="21.833" width="4.833" height="4.833" transform="matrix(1,0,0,1,0,0)" fill="rgb(102,102,102)"/><path d=" M 142.667 46 L 114.667 46 L 120.209 40.459 L 116.791 37.041 L 107.125 46.708 C 106.18 47.653 106.18 49.18 107.125 50.125 L 116.791 59.792 L 120.209 56.375 L 114.667 50.833 L 142.667 50.833 L 142.667 46 Z " fill="rgb(102,102,102)"/><path d=" M 132.292 62.209 L 128.875 58.791 L 119.208 68.458 C 118.263 69.403 118.263 70.93 119.208 71.875 L 128.875 81.542 L 132.292 78.125 L 126.751 72.583 L 147.5 72.583 L 147.5 67.75 L 126.751 67.75 L 132.292 62.209 Z " fill="rgb(102,102,102)"/><path d=" M 102.291 35.625 L 105.709 32.208 L 100.167 26.667 L 128.167 26.667 L 128.167 21.833 L 100.167 21.833 L 105.709 16.292 L 102.291 12.875 L 92.625 22.541 C 91.68 23.486 91.68 25.014 92.625 25.959 L 102.291 35.625 Z " fill="rgb(102,102,102)"/></g></g></svg>