<?xml version="1.0" standalone="no"?><!-- Generator: Gravit.io --><svg xmlns="http://www.w3.org/2000/svg" xmlns:xlink="http://www.w3.org/1999/xlink" style="isolation:isolate" viewBox="0 0 150 150" width="150" height="150"><defs><clipPath id="_clipPath_daSUXVw1g6vccNzllAGsVk8qdrFgtBCT"><rect width="150" height="150"/></clipPath></defs><g clip-path="url(#_clipPath_daSUXVw1g6vccNzllAGsVk8qdrFgtBCT)"><g><rect x="76.882" y="40.578" width="3.321" height="10.591" transform="matrix(1,0,0,1,0,0)" fill="rgb(102,102,102)"/><rect x="60.611" y="50.062" width="9.965" height="3.529" transform="matrix(-0.66,-0.752,0.665,-0.758,74.387,140.4)" fill="rgb(102,102,102)"/><rect x="55.851" y="64.535" width="9.298" height="3.783" transform="matrix(1,0,0,1,0,0)" fill="rgb(102,102,102)"/><rect x="92.156" y="64.787" width="9.298" height="3.783" transform="matrix(1,0,0,1,0,0)" fill="rgb(102,102,102)"/><rect x="86.435" y="50.029" width="9.966" height="3.529" transform="matrix(0.66,-0.752,0.665,0.758,-3.348,81.254)" fill="rgb(102,102,102)"/><path d=" M 136.874 2.5 L 12.905 2.5 C 7.149 2.5 2.5 8.048 2.5 14.604 L 2.5 101.352 C 2.5 107.909 7.149 113.457 12.905 113.457 L 63.156 113.457 C 63.378 118.5 65.592 123.039 69.134 125.813 C 71.126 127.326 72.454 130.1 72.454 132.874 L 72.454 135.648 C 72.233 135.9 72.233 135.9 72.011 136.152 C 71.126 137.413 70.462 138.926 70.683 140.691 C 70.683 142.457 70.905 143.213 70.905 143.97 C 70.905 144.726 71.126 145.23 71.126 147.5 L 74.447 147.5 C 74.447 144.978 74.447 144.474 74.225 143.465 C 74.225 142.961 74.004 142.204 74.004 140.439 C 74.004 139.683 74.225 139.178 74.447 138.674 C 74.668 138.422 74.889 138.17 75.332 138.17 L 103.668 138.17 C 103.889 138.17 104.332 138.422 104.553 138.674 C 104.996 139.178 104.996 139.683 104.996 140.439 C 104.775 142.709 104.775 143.213 104.775 143.213 C 104.553 143.717 104.553 144.222 104.553 147.248 L 107.874 147.248 C 107.874 146.491 107.874 144.726 107.874 144.474 C 108.095 143.97 108.095 143.465 108.317 140.439 C 108.317 138.926 107.874 137.413 107.21 136.152 L 107.21 136.152 C 107.21 135.143 107.431 132.117 108.317 130.352 C 108.538 129.848 108.76 129.343 108.981 128.839 C 110.309 126.57 111.637 123.796 112.744 118.5 C 112.966 116.987 113.187 115.222 113.187 113.204 L 136.874 113.204 C 142.63 113.204 147.5 107.909 147.5 101.1 L 147.5 14.604 C 147.5 8.048 142.63 2.5 136.874 2.5 Z  M 109.424 117.491 C 108.538 122.283 107.21 124.552 106.103 126.822 C 105.882 127.326 105.66 127.83 105.218 128.335 C 104.332 130.1 103.889 132.622 103.889 134.135 C 103.889 134.135 103.668 134.135 103.668 134.135 L 75.775 134.135 L 75.775 132.622 C 75.775 128.587 74.004 124.804 71.126 122.535 C 68.248 120.265 66.477 116.483 66.477 112.448 L 66.477 98.578 L 66.477 98.326 C 66.477 96.561 67.805 94.796 69.576 94.796 C 71.126 94.796 72.676 96.309 72.676 98.326 L 72.676 106.396 L 75.996 106.396 L 75.996 98.326 C 75.996 97.822 75.996 97.57 75.996 97.065 L 75.996 97.065 L 75.996 65.796 C 75.996 64.03 77.324 62.265 79.095 62.265 C 80.645 62.265 82.195 63.778 82.195 65.796 L 82.195 79.917 L 82.195 91.77 L 82.195 96.813 L 85.515 96.813 L 85.515 91.77 L 85.515 79.917 C 85.515 78.152 86.844 76.387 88.615 76.387 C 90.164 76.387 91.714 77.9 91.714 79.917 L 91.714 82.187 L 91.714 91.77 L 91.714 96.309 L 95.034 96.309 L 95.034 92.022 L 95.034 82.439 C 95.034 80.674 96.363 78.909 98.134 78.909 C 99.683 78.909 101.233 80.422 101.233 82.439 L 101.233 87.23 L 101.233 96.309 L 101.233 99.587 L 104.553 99.587 L 104.553 96.309 L 104.553 86.978 C 104.553 85.213 105.882 83.448 107.653 83.448 C 109.202 83.448 110.752 84.961 110.752 86.978 L 110.752 99.587 L 110.973 99.587 L 110.752 99.587 C 109.645 99.839 110.531 112.196 109.424 117.491 Z  M 106.546 79.917 C 105.439 79.917 104.332 80.17 103.447 80.926 C 102.782 77.648 100.347 75.126 97.248 75.126 C 95.92 75.126 94.592 75.63 93.485 76.639 C 92.378 74.37 90.385 72.857 87.95 72.857 C 86.844 72.857 85.958 73.109 84.851 73.865 L 84.851 66.048 C 84.851 62.013 81.973 58.735 78.431 58.735 C 74.889 58.735 72.011 62.013 72.011 66.048 L 72.011 92.022 C 71.569 91.265 70.462 90.761 69.355 90.761 C 66.477 90.761 64.042 93.03 63.378 96.057 L 17.775 96.057 L 17.775 19.648 L 126.248 19.648 L 126.248 96.057 L 112.966 96.057 L 112.966 86.978 C 112.966 82.943 110.088 79.917 106.546 79.917 Z  M 144.179 101.1 C 144.179 105.639 140.859 109.422 136.874 109.422 L 113.187 109.422 C 113.187 105.387 112.966 101.352 112.966 99.839 L 129.569 99.839 L 129.569 15.865 L 14.454 15.865 L 14.454 99.839 L 63.156 99.839 L 63.156 109.422 L 12.905 109.422 C 8.92 109.422 5.821 105.639 5.821 101.1 L 5.821 14.604 C 5.821 10.065 9.141 6.283 12.905 6.283 L 136.874 6.283 C 140.859 6.283 144.179 10.065 144.179 14.604 L 144.179 101.1 Z " fill="rgb(102,102,102)"/><path d=" M 136.653 51.926 C 133.775 51.926 131.34 54.7 131.34 57.978 C 131.34 61.257 133.775 64.03 136.653 64.03 C 139.531 64.03 141.966 61.257 141.966 57.978 C 141.966 54.7 139.531 51.926 136.653 51.926 Z  M 136.653 59.996 C 135.546 59.996 134.66 58.987 134.66 57.726 C 134.66 56.465 135.546 55.457 136.653 55.457 C 137.76 55.457 138.645 56.465 138.645 57.726 C 138.645 59.239 137.76 59.996 136.653 59.996 Z " fill="rgb(102,102,102)"/></g></g></svg>