<?xml version="1.0" standalone="no"?><!-- Generator: Gravit.io --><svg xmlns="http://www.w3.org/2000/svg" xmlns:xlink="http://www.w3.org/1999/xlink" style="isolation:isolate" viewBox="0 0 150 150" width="150" height="150"><defs><clipPath id="_clipPath_D3MQ2t2yhBJSt7YfOeBuKjSGbzEMAJ0E"><rect width="150" height="150"/></clipPath></defs><g clip-path="url(#_clipPath_D3MQ2t2yhBJSt7YfOeBuKjSGbzEMAJ0E)"><path d=" M 142.374 103.761 C 142.63 103.025 142.786 102.234 142.786 101.401 C 142.786 97.733 140.072 94.75 136.736 94.75 L 135.505 94.75 L 135.505 66.943 C 135.505 65.73 134.522 64.746 133.308 64.746 L 130.941 64.746 L 130.941 64.649 C 130.941 62.391 131.331 60.136 132.058 57.923 L 143.876 57.923 C 145.091 57.923 146.073 56.939 146.073 55.726 C 146.073 54.512 145.091 53.529 143.876 53.529 L 133.514 53.529 C 134.352 50.611 134.679 48.128 134.46 46.142 L 134.46 24.473 C 134.463 24.181 134.424 21.907 132.862 19.964 L 143.876 19.964 C 145.091 19.964 146.073 18.98 146.073 17.767 C 146.073 16.553 145.091 15.57 143.876 15.57 L 126.648 15.57 L 126.648 14.037 C 126.648 10.701 123.664 7.985 119.997 7.985 C 119.167 7.985 118.38 8.141 117.646 8.395 C 117.145 5.497 114.41 3.268 111.091 3.268 C 107.773 3.268 105.039 5.497 104.537 8.393 C 103.798 8.135 103.004 7.978 102.166 7.978 C 98.512 7.978 95.539 10.701 95.539 14.048 L 95.539 15.57 L 66.161 15.57 C 64.946 15.57 63.964 16.553 63.964 17.767 L 63.964 20.122 L 63.876 20.122 C 61.284 20.122 58.692 19.639 56.169 18.683 C 56.14 18.672 56.115 18.666 56.085 18.655 L 56.085 5.341 C 56.085 4.128 55.103 3.144 53.888 3.144 C 52.674 3.144 51.692 4.128 51.692 5.341 L 51.692 17.287 C 49.241 16.672 47.097 16.412 45.369 16.604 L 23.699 16.604 C 23.322 16.574 20.307 16.647 18.252 19.11 C 18.202 19.17 18.176 19.247 18.128 19.309 L 18.128 5.341 C 18.128 4.128 17.145 3.144 15.931 3.144 C 14.716 3.144 13.734 4.128 13.734 5.341 L 13.734 24.416 L 13.264 24.416 C 9.928 24.416 7.214 27.399 7.214 31.067 C 7.214 31.9 7.37 32.69 7.626 33.426 C 4.729 33.921 2.5 36.655 2.5 39.975 C 2.5 43.294 4.729 46.029 7.626 46.524 C 7.37 47.26 7.214 48.05 7.214 48.884 C 7.214 52.551 9.928 55.535 13.264 55.535 L 13.734 55.535 L 13.734 83.056 C 13.734 84.269 14.716 85.253 15.931 85.253 L 18.284 85.253 L 18.284 85.345 C 18.284 87.699 17.864 90.051 17.074 92.355 L 6.107 92.355 C 4.892 92.355 3.91 93.339 3.91 94.552 C 3.91 95.766 4.892 96.749 6.107 96.749 L 15.642 96.749 C 14.866 99.539 14.554 101.933 14.766 103.852 L 14.766 125.52 C 14.762 125.827 14.809 128.315 16.613 130.314 L 6.107 130.314 C 4.892 130.314 3.91 131.298 3.91 132.511 C 3.91 133.724 4.892 134.708 6.107 134.708 L 22.577 134.708 L 22.577 135.957 C 22.577 139.293 25.562 142.008 29.228 142.008 C 30.062 142.008 30.852 141.852 31.588 141.596 C 32.083 144.491 34.818 146.721 38.136 146.721 C 41.455 146.721 44.19 144.491 44.684 141.595 C 45.421 141.852 46.212 142.008 47.047 142.008 C 50.713 142.008 53.698 139.293 53.698 135.957 L 53.698 134.708 L 83.854 134.708 C 85.069 134.708 86.051 133.724 86.051 132.511 L 86.051 130.162 L 86.124 130.162 C 88.485 130.162 90.844 130.584 93.153 131.378 L 93.153 144.659 C 93.153 145.872 94.136 146.856 95.35 146.856 C 96.564 146.856 97.547 145.872 97.547 144.659 L 97.547 132.807 C 99.73 133.412 101.684 133.748 103.337 133.748 C 103.79 133.748 104.221 133.725 104.631 133.68 L 126.301 133.68 C 126.641 133.65 129.119 133.622 131.111 131.815 L 131.111 144.659 C 131.111 145.872 132.093 146.856 133.308 146.856 C 134.522 146.856 135.505 145.872 135.505 144.659 L 135.505 125.869 L 136.736 125.869 C 140.072 125.869 142.786 122.885 142.786 119.218 C 142.786 118.384 142.63 117.594 142.374 116.858 C 145.271 116.363 147.5 113.629 147.5 110.31 C 147.5 106.991 145.271 104.255 142.374 103.761 Z  M 131.111 94.75 L 123.675 94.75 C 123.94 93.977 124.099 93.144 124.099 92.266 C 124.099 88.474 121.385 85.389 118.047 85.389 L 113.895 85.389 C 107.982 85.389 102.33 87.069 97.547 90.073 L 97.547 69.14 L 131.111 69.14 L 131.111 94.75 L 131.111 94.75 Z  M 83.854 92.355 L 54.99 92.355 C 54.408 91.734 53.817 91.121 53.178 90.552 L 52.902 90.309 C 52.299 89.781 51.953 88.969 51.953 88.08 L 51.953 85.253 L 53.888 85.253 C 55.103 85.253 56.085 84.269 56.085 83.056 L 56.085 57.538 C 56.995 56.746 57.87 55.913 58.677 55.007 L 58.913 54.742 C 59.441 54.139 60.252 53.792 61.14 53.792 L 63.964 53.792 L 63.964 55.726 C 63.964 56.939 64.946 57.923 66.161 57.923 L 94.522 57.923 C 95.021 58.441 95.514 58.966 96.054 59.447 C 96.058 59.452 96.317 59.682 96.322 59.686 C 96.925 60.213 97.27 61.025 97.27 61.914 L 97.27 64.746 L 95.35 64.746 C 94.136 64.746 93.153 65.73 93.153 66.943 L 93.153 93.437 C 92.525 94.025 91.906 94.623 91.331 95.268 L 91.087 95.542 C 90.559 96.145 89.748 96.492 88.86 96.492 L 86.051 96.492 L 86.051 94.552 C 86.051 93.339 85.069 92.355 83.854 92.355 Z  M 99.933 14.047 C 99.933 13.139 100.956 12.372 102.166 12.372 C 103.393 12.372 104.432 13.139 104.432 14.047 L 104.432 30.843 C 104.432 32.057 105.414 33.04 106.629 33.04 C 107.843 33.04 108.826 32.057 108.826 30.843 L 108.826 14.047 L 108.826 9.338 C 108.826 8.445 109.883 7.661 111.091 7.661 C 112.299 7.661 113.357 8.445 113.357 9.338 L 113.357 13.94 C 113.356 13.973 113.346 14.004 113.346 14.037 L 113.346 30.84 C 113.346 31.753 113.903 32.534 114.696 32.866 C 114.96 32.978 115.249 33.04 115.554 33.04 C 116.768 33.04 117.751 32.057 117.751 30.843 L 117.751 13.999 C 117.781 13.119 118.792 12.379 119.997 12.379 C 121.22 12.379 122.254 13.139 122.254 14.037 L 122.254 17.745 C 122.254 17.753 122.25 17.759 122.25 17.767 C 122.25 17.774 122.254 17.78 122.254 17.788 L 122.254 30.84 C 122.254 32.053 123.237 33.037 124.451 33.037 C 125.665 33.037 126.648 32.053 126.648 30.84 L 126.648 21.753 C 127.573 21.737 128.487 21.87 129.113 22.378 C 130.032 23.122 130.066 24.441 130.066 24.449 L 130.066 46.269 C 130.066 46.361 130.072 46.451 130.083 46.542 C 130.328 48.506 129.684 51.648 128.27 55.388 C 127.127 58.41 126.547 61.525 126.547 64.649 L 126.547 64.746 L 101.664 64.746 L 101.664 61.914 C 101.664 59.756 100.771 57.738 99.214 56.378 L 97.768 58.032 L 98.976 56.166 C 93.629 51.403 90.561 44.374 90.561 36.878 L 90.561 32.726 C 90.561 31.942 91.582 31.069 93.046 31.069 C 94.509 31.069 95.528 31.942 95.528 32.726 L 95.528 40.524 C 95.528 41.737 96.511 42.721 97.725 42.721 C 98.337 42.721 98.888 42.47 99.286 42.067 C 99.685 41.669 99.933 41.119 99.933 40.511 L 99.933 14.047 Z  M 68.358 19.964 L 95.539 19.964 L 95.539 27.102 C 94.763 26.834 93.927 26.675 93.046 26.675 C 89.252 26.675 86.167 29.39 86.167 32.726 L 86.167 36.878 C 86.167 42.915 87.919 48.682 91.048 53.529 L 68.358 53.529 L 68.358 19.964 Z  M 11.608 48.884 C 11.608 47.661 12.367 46.627 13.264 46.627 L 30.067 46.627 C 31.282 46.627 32.264 45.643 32.264 44.43 C 32.264 43.216 31.282 42.233 30.067 42.233 L 13.264 42.233 L 8.552 42.233 C 7.653 42.233 6.894 41.199 6.894 39.975 C 6.894 38.752 7.653 37.717 8.552 37.717 L 13.264 37.717 L 30.067 37.717 C 31.282 37.717 32.264 36.734 32.264 35.521 C 32.264 34.307 31.282 33.324 30.067 33.324 L 13.264 33.324 C 12.367 33.324 11.608 32.289 11.608 31.067 C 11.608 29.844 12.367 28.809 13.264 28.809 L 30.067 28.809 C 31.282 28.809 32.264 27.826 32.264 26.612 C 32.264 25.399 31.282 24.416 30.067 24.416 L 20.98 24.416 C 20.965 23.491 21.098 22.576 21.605 21.949 C 22.35 21.032 23.667 20.998 23.676 20.998 L 45.498 20.998 C 45.59 20.998 45.68 20.992 45.77 20.981 C 47.725 20.737 50.874 21.378 54.614 22.792 C 57.634 23.936 60.75 24.516 63.876 24.516 L 63.964 24.516 L 63.964 49.399 L 61.14 49.399 C 58.986 49.399 56.969 50.291 55.605 51.848 L 55.392 52.089 C 50.632 57.436 43.601 60.502 36.105 60.502 L 31.953 60.502 C 31.168 60.502 30.295 59.482 30.295 58.018 C 30.295 56.555 31.168 55.535 31.953 55.535 L 39.752 55.535 C 40.966 55.535 41.949 54.551 41.949 53.338 C 41.949 52.124 40.966 51.141 39.752 51.141 L 31.953 51.141 L 13.264 51.141 C 12.367 51.141 11.608 50.107 11.608 48.884 Z  M 18.128 55.535 L 26.325 55.535 C 26.06 56.307 25.901 57.14 25.901 58.018 C 25.901 61.811 28.615 64.896 31.953 64.896 L 36.105 64.896 C 41.7 64.896 47.074 63.407 51.692 60.699 L 51.692 80.859 L 18.128 80.859 L 18.128 55.535 Z  M 49.304 135.957 C 49.304 136.855 48.269 137.614 47.047 137.614 C 45.821 137.614 44.787 136.855 44.787 135.957 L 44.787 119.153 C 44.787 117.94 43.805 116.956 42.59 116.956 C 41.376 116.956 40.393 117.94 40.393 119.153 L 40.393 135.957 L 40.393 140.669 C 40.393 141.567 39.359 142.327 38.136 142.327 C 36.913 142.327 35.879 141.567 35.879 140.669 L 35.879 135.957 L 35.879 119.153 C 35.879 117.94 34.897 116.956 33.682 116.956 C 32.468 116.956 31.485 117.94 31.485 119.153 L 31.485 135.957 C 31.485 136.855 30.451 137.614 29.228 137.614 C 28.005 137.614 26.971 136.855 26.971 135.957 L 26.971 119.153 C 26.971 117.94 25.989 116.956 24.774 116.956 C 23.56 116.956 22.577 117.94 22.577 119.153 L 22.577 128.243 C 21.652 128.258 20.738 128.124 20.112 127.615 C 19.194 126.872 19.16 125.552 19.16 125.545 L 19.16 103.724 C 19.16 103.633 19.153 103.543 19.142 103.452 C 18.898 101.488 19.542 98.347 20.955 94.607 C 22.099 91.585 22.678 88.47 22.678 85.345 L 22.678 85.253 L 47.559 85.253 L 47.559 88.08 C 47.559 90.236 48.452 92.252 50.009 93.615 L 50.25 93.827 C 55.596 98.59 58.664 105.621 58.664 113.116 L 58.664 117.268 C 58.664 118.052 57.643 118.925 56.18 118.925 C 54.717 118.925 53.698 118.052 53.698 117.268 L 53.698 109.47 C 53.698 108.257 52.715 107.273 51.501 107.273 C 50.286 107.273 49.304 108.257 49.304 109.47 L 49.304 117.268 L 49.304 135.957 L 49.304 135.957 Z  M 53.698 130.314 L 53.698 122.895 C 54.47 123.16 55.302 123.319 56.18 123.319 C 59.973 123.319 63.058 120.604 63.058 117.268 L 63.058 113.116 C 63.058 107.196 61.374 101.536 58.361 96.749 L 81.657 96.749 L 81.657 98.646 C 81.657 98.661 81.649 98.674 81.649 98.689 C 81.649 98.704 81.657 98.716 81.657 98.731 L 81.657 127.922 C 81.657 127.937 81.649 127.95 81.649 127.965 C 81.649 127.98 81.657 127.992 81.657 128.007 L 81.657 130.314 L 53.698 130.314 Z  M 141.448 112.567 L 136.736 112.567 L 119.933 112.567 C 118.718 112.567 117.736 113.55 117.736 114.764 C 117.736 115.977 118.718 116.961 119.933 116.961 L 136.736 116.961 C 137.633 116.961 138.392 117.995 138.392 119.218 C 138.392 120.441 137.633 121.475 136.736 121.475 L 119.933 121.475 C 118.718 121.475 117.736 122.459 117.736 123.672 C 117.736 124.885 118.718 125.869 119.933 125.869 L 129.02 125.869 C 129.035 126.794 128.902 127.708 128.395 128.335 C 127.65 129.252 126.333 129.286 126.324 129.286 L 104.502 129.286 C 104.41 129.286 104.32 129.292 104.23 129.304 C 102.269 129.55 99.126 128.907 95.386 127.492 C 92.366 126.348 89.25 125.768 86.124 125.768 L 86.051 125.768 L 86.051 100.886 L 88.86 100.886 C 91.014 100.886 93.031 99.993 94.395 98.437 L 94.608 98.196 C 99.368 92.85 106.399 89.783 113.895 89.783 L 118.047 89.783 C 118.832 89.783 119.705 90.803 119.705 92.266 C 119.705 93.729 118.832 94.75 118.047 94.75 L 110.248 94.75 C 109.034 94.75 108.051 95.733 108.051 96.947 C 108.051 98.16 109.034 99.144 110.248 99.144 L 118.047 99.144 L 136.736 99.144 C 137.633 99.144 138.392 100.178 138.392 101.401 C 138.392 102.624 137.633 103.658 136.736 103.658 L 119.933 103.658 C 118.718 103.658 117.736 104.641 117.736 105.855 C 117.736 107.068 118.718 108.052 119.933 108.052 L 136.736 108.052 L 141.448 108.052 C 142.347 108.052 143.106 109.086 143.106 110.31 C 143.106 111.533 142.347 112.567 141.448 112.567 Z " fill="rgb(102,102,102)"/></g></svg>