<?xml version="1.0" standalone="no"?><!-- Generator: Gravit.io --><svg xmlns="http://www.w3.org/2000/svg" xmlns:xlink="http://www.w3.org/1999/xlink" style="isolation:isolate" viewBox="0 0 150 150" width="150" height="150"><defs><clipPath id="_clipPath_6tJyW9s3iyJ3g2RaEhh3FC9Q7YV3Gazz"><rect width="150" height="150"/></clipPath></defs><g clip-path="url(#_clipPath_6tJyW9s3iyJ3g2RaEhh3FC9Q7YV3Gazz)"><g><g><path d=" M 74.991 121.664 C 49.264 121.664 28.333 100.733 28.333 75.009 C 28.333 49.285 49.264 28.354 74.991 28.354 C 100.715 28.354 121.646 49.285 121.646 75.009 C 121.646 100.733 100.715 121.664 74.991 121.664 Z  M 74.991 34.396 C 52.595 34.396 34.375 52.615 34.375 75.009 C 34.375 97.403 52.595 115.622 74.991 115.622 C 97.385 115.622 115.604 97.403 115.604 75.009 C 115.604 52.615 97.385 34.396 74.991 34.396 Z " fill="rgb(102,102,102)"/></g><g><path d=" M 82.673 139.281 C 81.971 139.281 81.287 139.036 80.741 138.582 C 80.101 138.048 79.708 137.275 79.658 136.443 C 79.511 133.986 77.463 132.062 75 132.062 C 72.519 132.062 70.46 133.986 70.312 136.443 C 70.262 137.275 69.87 138.048 69.23 138.582 C 68.587 139.116 67.752 139.355 66.929 139.258 C 37.476 135.629 14.371 112.524 10.739 83.071 C 10.636 82.245 10.881 81.41 11.415 80.77 C 11.949 80.13 12.722 79.738 13.554 79.688 C 16.011 79.54 17.938 77.481 17.938 75 C 17.938 72.534 16.014 70.489 13.557 70.342 C 12.725 70.292 11.949 69.902 11.415 69.259 C 10.881 68.619 10.636 67.787 10.739 66.958 C 14.365 37.502 37.473 14.397 66.929 10.769 C 67.749 10.663 68.587 10.911 69.23 11.444 C 69.87 11.978 70.262 12.751 70.312 13.583 C 70.46 16.023 72.519 17.935 75 17.935 C 77.466 17.935 79.511 16.023 79.658 13.583 C 79.708 12.751 80.101 11.978 80.741 11.444 C 81.384 10.911 82.216 10.666 83.042 10.769 C 112.498 14.395 135.603 37.499 139.231 66.958 C 139.334 67.787 139.089 68.619 138.556 69.259 C 138.022 69.902 137.246 70.292 136.414 70.342 C 133.974 70.486 132.062 72.534 132.062 75 C 132.062 77.481 133.974 79.54 136.417 79.688 C 137.249 79.738 138.022 80.13 138.556 80.77 C 139.089 81.41 139.334 82.245 139.231 83.071 C 135.6 112.53 112.495 135.635 83.042 139.258 C 82.918 139.272 82.797 139.281 82.673 139.281 Z  M 75 126.021 C 79.522 126.021 83.434 128.85 84.989 132.868 C 109.507 128.705 128.673 109.536 132.841 85.015 C 128.838 83.455 126.021 79.534 126.021 75 C 126.021 70.475 128.838 66.569 132.841 65.011 C 128.676 40.488 109.509 21.321 84.986 17.156 C 83.428 21.159 79.522 23.976 75 23.976 C 70.466 23.976 66.548 21.159 64.985 17.156 C 40.464 21.324 21.295 40.491 17.129 65.008 C 21.15 66.563 23.979 70.475 23.979 75 C 23.979 79.537 21.15 83.458 17.129 85.018 C 21.298 109.539 40.464 128.702 64.982 132.868 C 66.542 128.85 70.463 126.021 75 126.021 Z " fill="rgb(102,102,102)"/></g><g><path d=" M 75 23.976 C 69.371 23.976 64.69 19.637 64.291 14.073 C 64.259 13.816 64.247 13.533 64.247 13.253 C 64.247 7.323 69.07 2.5 75 2.5 C 80.912 2.5 85.723 7.323 85.723 13.253 C 85.723 13.533 85.712 13.816 85.679 14.073 C 85.281 19.637 80.614 23.976 75 23.976 Z  M 75 8.542 C 72.401 8.542 70.289 10.654 70.289 13.253 C 70.315 13.386 70.304 13.451 70.312 13.583 C 70.46 16.023 72.519 17.935 75 17.935 C 77.466 17.935 79.511 16.023 79.658 13.583 C 79.667 13.451 79.682 13.318 79.708 13.185 L 79.682 13.253 C 79.682 10.654 77.581 8.542 75 8.542 Z " fill="rgb(102,102,102)"/></g><g><path d=" M 75 147.5 C 69.07 147.5 64.247 142.688 64.247 136.774 C 64.247 136.426 64.259 136.134 64.315 135.78 C 64.622 130.44 69.33 126.021 75 126.021 C 80.655 126.021 85.349 130.44 85.688 136.077 C 85.712 136.134 85.723 136.426 85.723 136.774 C 85.723 142.688 80.912 147.5 75 147.5 Z  M 75 132.062 C 72.519 132.062 70.46 133.986 70.312 136.443 L 70.289 136.774 C 70.289 139.358 72.401 141.458 75 141.458 C 77.581 141.458 79.682 139.358 79.682 136.774 L 82.703 136.774 L 79.682 136.653 C 79.511 133.986 77.463 132.062 75 132.062 Z " fill="rgb(102,102,102)"/></g><g><path d=" M 136.747 85.753 C 136.461 85.753 136.181 85.741 135.924 85.709 C 130.36 85.307 126.021 80.629 126.021 75 C 126.021 69.398 130.34 64.743 135.883 64.324 C 136.231 64.274 136.532 64.274 136.747 64.274 C 142.677 64.274 147.5 69.085 147.5 75 C 147.5 80.93 142.677 85.753 136.747 85.753 Z  M 136.747 70.315 C 136.597 70.348 136.567 70.333 136.414 70.342 C 133.974 70.486 132.062 72.534 132.062 75 C 132.062 77.481 133.974 79.54 136.417 79.688 C 136.549 79.696 136.682 79.711 136.815 79.738 C 139.346 79.711 141.458 77.599 141.458 75 C 141.458 72.416 139.346 70.315 136.747 70.315 Z " fill="rgb(102,102,102)"/></g><g><path d=" M 13.223 85.753 C 7.312 85.753 2.5 80.93 2.5 75 C 2.5 69.085 7.312 64.274 13.223 64.274 C 13.527 64.274 13.784 64.283 14.067 64.321 C 19.637 64.731 23.979 69.392 23.979 75 C 23.979 80.626 19.628 85.304 14.052 85.709 C 13.772 85.744 13.521 85.753 13.223 85.753 Z  M 13.2 70.301 C 10.642 70.315 8.542 72.416 8.542 75 C 8.542 77.599 10.642 79.711 13.223 79.711 C 13.324 79.694 13.453 79.694 13.554 79.688 C 16.011 79.54 17.938 77.481 17.938 75 C 17.938 72.534 16.014 70.489 13.557 70.342 C 13.439 70.336 13.318 70.321 13.2 70.301 Z " fill="rgb(102,102,102)"/></g><g><g><path d=" M 74.991 121.664 C 62.669 121.664 53.376 101.606 53.376 75.009 C 53.376 48.411 62.669 28.354 74.991 28.354 C 87.313 28.354 96.603 48.411 96.603 75.009 C 96.603 101.606 87.313 121.664 74.991 121.664 Z  M 74.991 34.396 C 67.625 34.396 59.418 51.075 59.418 75.009 C 59.418 98.942 67.625 115.622 74.991 115.622 C 82.354 115.622 90.561 98.942 90.561 75.009 C 90.561 51.075 82.354 34.396 74.991 34.396 Z " fill="rgb(102,102,102)"/></g><g><path d=" M 74.985 121.664 C 73.316 121.664 71.964 120.313 71.964 118.643 L 71.964 31.375 C 71.964 29.705 73.316 28.354 74.985 28.354 C 76.655 28.354 78.006 29.705 78.006 31.375 L 78.006 118.643 C 78.006 120.313 76.655 121.664 74.985 121.664 Z " fill="rgb(102,102,102)"/></g><g><g><path d=" M 114.631 59.905 L 35.349 59.905 C 34.319 59.905 33.36 59.38 32.806 58.515 C 32.251 57.648 32.174 56.559 32.602 55.624 C 40.21 39.057 56.848 28.354 74.991 28.354 C 93.137 28.354 109.772 39.057 117.377 55.624 C 117.805 56.559 117.728 57.648 117.174 58.515 C 116.619 59.38 115.66 59.905 114.631 59.905 Z  M 40.378 53.863 L 109.601 53.863 C 102.273 41.901 89.16 34.396 74.991 34.396 C 60.825 34.396 47.709 41.901 40.378 53.863 Z " fill="rgb(102,102,102)"/></g><g><path d=" M 74.991 121.664 C 56.848 121.664 40.21 110.961 32.602 94.394 C 32.174 93.458 32.251 92.37 32.806 91.502 C 33.36 90.638 34.319 90.113 35.349 90.113 L 114.631 90.113 C 115.66 90.113 116.619 90.638 117.174 91.502 C 117.728 92.37 117.805 93.458 117.377 94.394 C 109.772 110.961 93.137 121.664 74.991 121.664 Z  M 40.378 96.155 C 47.709 108.117 60.825 115.622 74.991 115.622 C 89.16 115.622 102.273 108.117 109.601 96.155 L 40.378 96.155 Z " fill="rgb(102,102,102)"/></g><g><path d=" M 118.625 78.03 L 31.357 78.03 C 29.687 78.03 28.336 76.679 28.336 75.009 C 28.336 68.309 29.773 61.787 32.605 55.621 C 33.098 54.55 34.169 53.863 35.349 53.863 L 114.631 53.863 C 115.811 53.863 116.882 54.55 117.374 55.621 C 120.209 61.79 121.646 68.312 121.646 75.009 C 121.646 76.679 120.295 78.03 118.625 78.03 Z  M 34.49 71.988 L 115.492 71.988 C 115.179 67.852 114.227 63.805 112.645 59.905 L 37.334 59.905 C 35.753 63.802 34.803 67.849 34.49 71.988 Z " fill="rgb(102,102,102)"/></g><g><path d=" M 114.631 96.155 L 35.349 96.155 C 34.169 96.155 33.098 95.467 32.605 94.396 C 29.773 88.231 28.336 81.708 28.336 75.009 C 28.336 73.339 29.687 71.988 31.357 71.988 L 118.625 71.988 C 120.295 71.988 121.646 73.339 121.646 75.009 C 121.646 81.705 120.209 88.228 117.374 94.396 C 116.882 95.467 115.811 96.155 114.631 96.155 Z  M 37.334 90.113 L 112.645 90.113 C 114.227 86.213 115.179 82.166 115.492 78.03 L 34.49 78.03 C 34.803 82.169 35.753 86.216 37.334 90.113 Z " fill="rgb(102,102,102)"/></g></g></g></g></g></svg>